<svg xmlns="http://www.w3.org/2000/svg" viewBox="0 0 512 512" role="img" aria-labelledby="title desc">
  <title id="title">Zen Charge EV Charging</title>
  <desc id="desc">Zen Charge brand icon for electric vehicle charging infrastructure.</desc>
  <rect width="512" height="512" rx="112" fill="#F4EFE7"/>
  <circle cx="390" cy="120" r="72" fill="#DDECE6"/>
  <path d="M134 136h178L193 272h123L178 408h-41l89-102h-120z" fill="#0E6B57"/>
  <path d="M336 302h56c34 0 62 28 62 62v14" fill="none" stroke="#0E6B57" stroke-width="28" stroke-linecap="round"/>
  <path d="M416 378h50" fill="none" stroke="#0E6B57" stroke-width="28" stroke-linecap="round"/>
  <path d="M424 350v56M456 350v56" fill="none" stroke="#0E6B57" stroke-width="18" stroke-linecap="round"/>
  <path d="M288 282c14-39 51-66 95-66h22c31 0 58 22 65 52l6 26H325c-16 0-30-5-37-12z" fill="#C93A32"/>
  <circle cx="355" cy="304" r="20" fill="#13231A"/>
  <circle cx="438" cy="304" r="20" fill="#13231A"/>
  <text x="256" y="92" text-anchor="middle" font-family="Arial, Helvetica, sans-serif" font-size="46" font-weight="800" letter-spacing="3" fill="#0E6B57">ZEN</text>
  <text x="256" y="462" text-anchor="middle" font-family="Arial, Helvetica, sans-serif" font-size="42" font-weight="900" letter-spacing="2" fill="#C93A32">CHARGE</text>
</svg>
